<?xml version="1.0" standalone="no"?>
<!DOCTYPE svg PUBLIC "-//W3C//DTD SVG 20010904//EN"
 "http://www.w3.org/TR/2001/REC-SVG-20010904/DTD/svg10.dtd">
<svg version="1.0" xmlns="http://www.w3.org/2000/svg"
 width="150.000000pt" height="150.000000pt" viewBox="0 0 150.000000 150.000000"
 preserveAspectRatio="xMidYMid meet">
<metadata>
Created by potrace 1.15, written by Peter Selinger 2001-2017
</metadata>
<g transform="translate(0.000000,150.000000) scale(0.100000,-0.100000)"
fill="#000000" stroke="none">
<path d="M865 1490 c-13 -6 2 -7 43 -3 l62 6 0 -232 c0 -229 -1 -236 -31 -233
-12 2 -5 -27 7 -32 8 -3 11 0 7 10 -3 7 0 14 7 14 8 0 10 -8 6 -22 -3 -13 -6
-26 -6 -30 0 -18 -28 -6 -56 23 -16 17 -41 37 -56 45 l-27 14 19 -42 c58 -128
-33 -334 -160 -364 -14 -4 -42 -19 -62 -35 -20 -16 -40 -29 -44 -29 -4 0 -28
-10 -52 -21 -40 -20 -50 -21 -119 -11 -67 9 -80 15 -113 47 l-38 37 -21 -48
-21 -49 -48 3 c-60 4 -119 -20 -133 -54 -14 -38 -15 -141 -1 -201 14 -63 51
-145 62 -138 5 3 11 1 15 -5 3 -5 20 -10 36 -10 19 0 32 -6 36 -18 7 -18 41
-48 77 -69 30 -18 151 -16 190 2 24 12 38 30 55 70 18 44 28 55 46 55 18 0 21
-4 17 -25 -2 -14 -8 -28 -13 -30 -16 -10 34 -76 72 -95 64 -33 244 -22 291 18
9 7 19 38 23 70 8 72 24 132 34 132 4 0 31 -31 59 -70 54 -72 101 -106 180
-130 49 -15 113 -4 189 33 39 19 42 23 48 71 19 148 -65 306 -161 306 -22 0
-38 10 -66 42 -36 43 -37 43 -98 41 l-61 -2 6 97 c8 109 2 129 -78 243 -37 54
-42 80 -14 75 21 -3 38 -17 32 -27 -4 -5 -3 -9 2 -10 4 0 17 -2 28 -4 16 -3
13 2 -12 25 -18 17 -33 32 -33 35 0 11 40 4 40 -7 0 -7 5 -5 11 5 5 9 21 17
34 17 18 0 25 5 25 20 0 20 -1 20 -37 4 -70 -30 -69 -29 -55 -12 10 13 10 18
1 24 -8 4 -9 3 -5 -4 4 -7 1 -12 -8 -12 -14 0 -16 30 -16 246 l0 247 58 -6
c31 -4 68 -9 82 -12 14 -2 7 2 -15 9 -45 16 -209 20 -240 6z"/>
<path d="M578 1223 c-9 -2 -20 -14 -24 -26 -7 -22 2 -31 100 -109 51 -40 81
-41 90 -2 9 34 -15 74 -67 112 -43 31 -61 35 -99 25z"/>
<path d="M175 1208 c-46 -16 -55 -27 -55 -69 0 -52 16 -83 50 -96 26 -10 28
-8 33 16 3 14 26 48 51 75 26 27 46 53 46 58 0 11 -46 28 -73 27 -12 0 -35 -5
-52 -11z"/>
<path d="M488 887 c-24 -19 -48 -63 -48 -87 0 -4 12 -11 28 -15 15 -3 34 -13
42 -20 8 -8 33 -18 55 -23 22 -5 46 -11 54 -13 27 -7 34 56 12 106 -11 25 -26
45 -34 45 -8 0 -17 7 -21 15 -8 22 -57 18 -88 -8z"/>
</g>
</svg>
